<svg id="_0090_code_development" data-name="0090_code_development" xmlns="http://www.w3.org/2000/svg" xmlns:xlink="http://www.w3.org/1999/xlink" viewBox="0 0 500 500" data-imageid="coding-8" imageName="Coding" class="illustrations_image" style="width: 188px;"><defs><style>.cls-1_coding-8{fill:#cebcff;}.cls-12_coding-8,.cls-2_coding-8,.cls-3_coding-8,.cls-4_coding-8,.cls-5_coding-8{isolation:isolate;}.cls-2_coding-8,.cls-3_coding-8,.cls-4_coding-8,.cls-5_coding-8{opacity:0.32;}.cls-2_coding-8{fill:url(#linear-gradient);}.cls-3_coding-8{fill:url(#linear-gradient-2-coding-8);}.cls-4_coding-8{fill:url(#linear-gradient-3-coding-8);}.cls-5_coding-8{fill:url(#linear-gradient-4-coding-8);}.cls-6_coding-8{fill:#3e2928;}.cls-7_coding-8{fill:#68e1fd;}.cls-8_coding-8{fill:#f2f2f2;}.cls-12_coding-8,.cls-9_coding-8{fill:#053855;}.cls-10_coding-8,.cls-15_coding-8{fill:#4be2c5;}.cls-11_coding-8{fill:#007f68;}.cls-12_coding-8{opacity:0.1;}.cls-13_coding-8{fill:#ff8f6f;}.cls-14_coding-8{fill:#ffb5a9;}.cls-15_coding-8{opacity:0.5;}.cls-16_coding-8{fill:#d4145a;}</style><linearGradient id="linear-gradient-coding-8" x1="118.34" y1="1571.61" x2="185.29" y2="1623.87" gradientTransform="matrix(1, 0, 0, -1, 0, 1932.07)" gradientUnits="userSpaceOnUse"><stop offset="0" stop-color="#f2f2f2" stop-opacity="0"/><stop offset="0.98" stop-color="#053855"/></linearGradient><linearGradient id="linear-gradient-2-coding-8" x1="89.09" y1="1642.78" x2="154.28" y2="1709.1" xlink:href="#linear-gradient-coding-8"/><linearGradient id="linear-gradient-3-coding-8" x1="218.63" y1="1583.6" x2="251.32" y2="1681.68" xlink:href="#linear-gradient-coding-8"/><linearGradient id="linear-gradient-4-coding-8" x1="326.82" y1="1536.64" x2="359.82" y2="1563.24" xlink:href="#linear-gradient-coding-8"/></defs><path id="Base_coding-8" class="cls-1_coding-8" d="M222,157.65l-207,120.4a13.18,13.18,0,0,0,.2,22.92L268.51,442.8a20.83,20.83,0,0,0,20.07.17L483.31,338.24a15.88,15.88,0,0,0,.49-27.68Z"/><g id="Shadow_coding-8"><path class="cls-2_coding-8" d="M192.08,342.48c11.59-11.9,24-22.92,35.08-35.28l-44.59-23.6L88,334.16c17.68,9.27,43.56,29.1,68.83,46.27C168.57,367.78,180,354.86,192.08,342.48Z"/><path class="cls-3_coding-8" d="M120.16,289.42C139.64,275,159,260.5,179.35,247.34l-41.74-22.1-88,54.3c13.34,7,24.74,16.28,43.64,29.63C102.23,302.54,111.17,296,120.16,289.42Z"/><path class="cls-4_coding-8" d="M230.9,374.08c21-11.3,66-55.18,86.8-66.73l-79.13-41.87-94.5,50.58C166,327.51,200.56,355.3,230.9,374.08Z"/><path class="cls-5_coding-8" d="M340.07,404.32c11.53-7.67,23.24-15.07,34.89-22.53l-16.55-12.08-64.07,26.75c7.74,4.06,18.2,11.67,29.2,19.41C329,412,334.47,408,340.07,404.32Z"/></g><g id="Monitor_coding-8"><path class="cls-6_coding-8" d="M273.49,248.92l-26.6,12.81a6.13,6.13,0,0,0-.43,10.81l63.07,36.77a6.12,6.12,0,0,0,8.24-2l15.33-23.8"/><path class="cls-7_coding-8 targetColor" d="M407.16,180.7,189.9,55.54a7,7,0,0,0-10.6,6.11v133a5.44,5.44,0,0,0,2.73,4.72L413.28,332.86a2.62,2.62,0,0,0,3.59-1,2.57,2.57,0,0,0,.36-1.32V198.11A20.08,20.08,0,0,0,407.16,180.7Z" style="fill: rgb(0, 194, 255);"/><path class="cls-8_coding-8" d="M193.68,67.31l205.8,118.41a14.44,14.44,0,0,1,7.23,12.5v95.36a5.2,5.2,0,0,1-7.79,4.52L189,177.71a5.12,5.12,0,0,1-2.57-4.45V71.5a4.83,4.83,0,0,1,4.83-4.83A4.88,4.88,0,0,1,193.68,67.31Z"/><ellipse class="cls-9_coding-8" cx="391.09" cy="188.63" rx="2.24" ry="2.44"/><ellipse class="cls-9_coding-8" cx="383.95" cy="185.09" rx="2.24" ry="2.44"/><path class="cls-10_coding-8" d="M441,178.22v70.31a7.83,7.83,0,0,1-7.82,7.83,7.93,7.93,0,0,1-4-1.11l-66.82-39.86a7.83,7.83,0,0,1-3.82-6.72v-69a7.83,7.83,0,0,1,11.76-6.74l66.82,38.59A7.83,7.83,0,0,1,441,178.22Z"/><polygon class="cls-11_coding-8" points="388.81 215.09 367.79 185.59 391.67 168.04 394.99 172.55 375.55 186.84 393.37 211.84 388.81 215.09"/><polygon class="cls-11_coding-8" points="407.2 225.92 404.83 220.84 424.61 211.61 410 183.06 414.99 180.51 432.24 214.23 407.2 225.92"/></g><g id="Character_coding-8"><polyline class="cls-8_coding-8" points="159.82 297.89 159.81 299.22 160.48 300.06"/><path class="cls-9_coding-8" d="M186.65,281.79l-26.07,16A1.62,1.62,0,0,0,160,300a1.67,1.67,0,0,0,.61.6L200,323.08a3.63,3.63,0,0,0,3.61,0l26-15.17c1.89-1.54,1.77-4.45,0-4.57l-39.2-21.61A3.69,3.69,0,0,0,186.65,281.79Z"/><path class="cls-8_coding-8" d="M186.65,280.68l-26.07,16a1.62,1.62,0,0,0-.61,2.2,1.67,1.67,0,0,0,.61.6L200,321.91a3.59,3.59,0,0,0,3.61,0l25.94-15.1a2,2,0,0,0,.74-2.74,1.92,1.92,0,0,0-.74-.73l-39.2-22.71A3.66,3.66,0,0,0,186.65,280.68Z"/><path class="cls-9_coding-8" d="M187.71,278.51s10.94-34.8,10.88-34.8.34-1.55,2.27-.66l41.33,24.56s2,.82,1.61,2.69-10.7,34.06-10.7,34.06a1.75,1.75,0,0,1-2,.67c-1.26-.39-42.46-24.56-42.46-24.56A1.58,1.58,0,0,1,187.71,278.51Z"/><polygon class="cls-7_coding-8 targetColor" points="199.26 246.22 241.6 271.12 232.68 300.63 189.8 276.46 199.26 246.22" style="fill: rgb(0, 194, 255);"/><path class="cls-7_coding-8 targetColor" d="M185,284.37l-9.54,5.88a1.15,1.15,0,0,0-.4,1.57,1.27,1.27,0,0,0,.4.4l34.05,19.6a3.36,3.36,0,0,0,3.36,0c2.2-1.27,6-3.56,8.3-5a1.4,1.4,0,0,0,.47-1.92,1.18,1.18,0,0,0-.47-.47L187,284.35A1.85,1.85,0,0,0,185,284.37Z" style="fill: rgb(0, 194, 255);"/><path class="cls-7_coding-8 targetColor" d="M185.49,300.44l11.88,6.75a1.19,1.19,0,0,1,.45,1.62,1.15,1.15,0,0,1-.45.45l-7,4.07a1.59,1.59,0,0,1-1.58,0l-12.17-7a1,1,0,0,1,0-1.73l7.31-4.2A1.58,1.58,0,0,1,185.49,300.44Z" style="fill: rgb(0, 194, 255);"/><path class="cls-12_coding-8" d="M185,284.37l-9.54,5.88a1.15,1.15,0,0,0-.4,1.57,1.27,1.27,0,0,0,.4.4l34.05,19.6a3.36,3.36,0,0,0,3.36,0c2.2-1.27,6-3.56,8.3-5a1.4,1.4,0,0,0,.47-1.92,1.18,1.18,0,0,0-.47-.47L187,284.35A1.85,1.85,0,0,0,185,284.37Z"/><path class="cls-12_coding-8" d="M185.49,300.44l11.88,6.75a1.19,1.19,0,0,1,.45,1.62,1.15,1.15,0,0,1-.45.45l-7,4.07a1.59,1.59,0,0,1-1.58,0l-12.17-7a1,1,0,0,1,0-1.73l7.31-4.2A1.58,1.58,0,0,1,185.49,300.44Z"/><path class="cls-13_coding-8" d="M139.52,278.12a42.17,42.17,0,0,0-12.26,18c-4.31,11.88,6.45,31.33,6.45,31.33l16.8-13.24"/><path class="cls-6_coding-8" d="M126.06,342.91a12.66,12.66,0,0,0,8.63,12,28.1,28.1,0,0,0,10.69,1.4c7.42-.48,13.91-3.95,19.37-8.74-1-13.16-4.74-22.4-7.92-26.81L136.56,311c-.1,1.84-10.78,14.21-10.53,29.29Q126,341.65,126.06,342.91Z"/><path class="cls-13_coding-8" d="M156.46,298.11,135,297.06l-3.71,25.83c6.4,4.41,23.3,1.75,27.14,1.1C157.26,315.43,157.37,306.65,156.46,298.11Z"/><path class="cls-14_coding-8" d="M188.17,294.56,186,296.45a55.17,55.17,0,0,1,5.6-2.8c1.3-.59,2,1.51.73,2.1l-.66.31c.69-.27,1.38-.52,2.08-.76a1.11,1.11,0,1,1,.73,2.1h0a57.53,57.53,0,0,0-5.36,2.14,39.62,39.62,0,0,1,4.8-1.2c1.4-.27,1.53,2,.14,2.21a35.12,35.12,0,0,0-5.43,1.47,5.27,5.27,0,0,1,1.67.28c.64.17,2.29.27,2.59.91a1.12,1.12,0,0,1-.58,1.48,1,1,0,0,1-.33.09l-8.33.85a9.8,9.8,0,0,0-2.24,1.75c-.85-1-1.74-2-2.68-2.87a30,30,0,0,0-2.62-2.29c.82-.79,1.66-1.55,2.52-2.29.19-.25.63-.12,1.14-.54,2.8-2.41,3.46-2.58,6.51-5.45C188.55,291.7,189.49,293.41,188.17,294.56Z"/><path class="cls-13_coding-8" d="M149.52,282.8s7.83,2.11,11,7.18a89.11,89.11,0,0,1,5.24,10.82L180,297.48s4.13,4.83,6.92,8.29c0,0-13.89,9.8-21.14,11.41s-14.95-10.78-14.95-10.78-1.6,5.13-1.29-.35"/><path class="cls-11_coding-8" d="M155.25,299.26a15.78,15.78,0,0,1-5-7c-.94-3.19.24-6,1.4-9a29,29,0,0,0,2-9.24c.1-3.12-.26-6.23-.47-9.33a.94.94,0,0,1,0-.41c-1-3.51-3.19-6.48-7.42-6.83-10.94-.93-11.55,11.2-11.47,16.1s.6,8.24-3,10.32-6.25,7.44-2.8,11.81.35,2.8-2,6.65-1.71,8.72,3,10.47,26.74-1.54,28.77-3.58a4.24,4.24,0,0,0,1-3A11.58,11.58,0,0,0,155.25,299.26Z"/><path class="cls-6_coding-8" d="M159.32,327.44c2.65-.57,28.29-2.61,34.27,6.3s-26.6,21.62-48.21,22.64S147.71,329.94,159.32,327.44Z"/></g><g id="Server_coding-8"><polyline class="cls-10_coding-8" points="126.83 195.34 126.83 239.37 160.93 259.07 188.71 242.55 188.71 201.64"/><polygon class="cls-10_coding-8" points="160.93 259.07 160.93 215.61 188.71 199.34 188.71 242.55 160.93 259.07"/><polygon class="cls-11_coding-8" points="154.91 178.71 126.83 195.34 160.93 215.61 188.71 199.34 154.91 178.71"/><polygon class="cls-15_coding-8" points="154.91 178.71 126.83 195.34 160.93 215.61 188.71 199.34 154.91 178.71"/><polygon class="cls-11_coding-8" points="131.28 202.58 131.28 211.69 156.83 226.28 156.83 217.33 131.28 202.58"/><ellipse class="cls-16_coding-8" cx="153.93" cy="220.3" rx="0.69" ry="1.09" transform="translate(-57.86 54.85) rotate(-17.06)"/><ellipse class="cls-7_coding-8 targetColor" cx="151.73" cy="219.02" rx="0.69" ry="1.09" transform="translate(-57.58 54.15) rotate(-17.06)" style="fill: rgb(0, 194, 255);"/><polygon class="cls-8_coding-8" points="149.25 218.16 133.46 209.09 133.63 208.78 149.42 217.85 149.25 218.16"/><polygon class="cls-11_coding-8" points="130.68 215.36 130.68 224.47 156.22 239.05 156.22 230.12 130.68 215.36"/><ellipse class="cls-16_coding-8" cx="153.32" cy="233.07" rx="0.69" ry="1.09" transform="translate(-61.63 55.24) rotate(-17.06)"/><path class="cls-7_coding-8 targetColor" d="M150.82,230.77c.36-.11.8.26,1,.84s0,1.13-.34,1.24-.8-.26-1-.84S150.46,230.88,150.82,230.77Z" style="fill: rgb(0, 194, 255);"/><polygon class="cls-8_coding-8" points="148.65 230.94 132.86 221.87 133.03 221.56 148.82 230.64 148.65 230.94"/><polygon class="cls-11_coding-8" points="130.68 228.11 130.68 237.23 156.22 251.8 156.22 242.87 130.68 228.11"/><ellipse class="cls-16_coding-8" cx="153.31" cy="245.84" rx="0.69" ry="1.09" transform="translate(-65.38 55.79) rotate(-17.06)"/><path class="cls-7_coding-8 targetColor" d="M150.81,243.52c.36-.11.8.27,1,.84s0,1.14-.34,1.25-.8-.27-1-.85S150.45,243.63,150.81,243.52Z" style="fill: rgb(0, 194, 255);"/><polygon class="cls-8_coding-8" points="148.65 243.69 132.86 234.62 133.03 234.32 148.82 243.39 148.65 243.69"/><polygon class="cls-9_coding-8" points="161.06 230.99 160.97 230.94 126.74 211.05 126.91 210.74 161.05 230.59 188.62 214.33 188.79 214.63 161.06 230.99"/><polygon class="cls-9_coding-8" points="161.06 243.75 160.97 243.69 126.74 223.81 126.91 223.51 161.05 243.34 188.62 227.08 188.79 227.38 161.06 243.75"/></g><g id="Plant_coding-8"><path class="cls-6_coding-8" d="M381.25,336.52a3,3,0,0,0-.52-1.1,6.5,6.5,0,0,0-1.6-1.4c-8.13-5.5-19.4-7-28-1.63-2,1.23-4.88,4-3.72,6.65.67,1.52,2.72,2.42,4.2,3a61.91,61.91,0,0,0,14.71,3.84c1.82.31,3.67.62,5.51.78a7.59,7.59,0,0,0,6.7-2.87C379.76,342.2,381.82,338.91,381.25,336.52Z"/><path class="cls-13_coding-8" d="M347.17,337.83s7.42,6.72,20.25,5.74,13.81-7,13.81-7-3.31,42.51-5.06,43.23-8.31,3.9-11.47,4.13-13.16-3.76-13.41-4.87S347.17,337.83,347.17,337.83Z"/><path class="cls-11_coding-8" d="M349.51,275.9c-.39-.8-1.61-.1-1.2.7,8.77,17.69,10.48,37.61,12.06,57,.07.88,1.47.9,1.4,0C360.18,314,358.41,293.82,349.51,275.9Z"/><path class="cls-11_coding-8" d="M348.39,276.06s2.45,9.19-.08,13.78-4.62,5.5-1.6,11.2,11.12,6.47,11.65,10.84S354.49,283.86,348.39,276.06Z"/><path class="cls-11_coding-8" d="M376.46,292.64a115.49,115.49,0,0,0-11.2,45.16.86.86,0,0,0,1.71,0,113.34,113.34,0,0,1,10.9-44.32C378.41,292.51,376.94,291.65,376.46,292.64Z"/><path class="cls-11_coding-8" d="M377.66,297.12c0-.92-.21-2.8-.11-4.35l-1,.61c-3.33,8.11-8.31,27.15-9.8,33,2-4.37,10.33-5,12.77-11.2a11.51,11.51,0,0,0,.14-8.27A30.79,30.79,0,0,1,377.66,297.12Z"/></g><g id="Line_of_Code_coding-8" data-name="Line of Code"><rect class="cls-11_coding-8" x="258.29" y="49.2" width="5.6" height="145.18" transform="translate(26.21 288.62) rotate(-60.39)"/><rect class="cls-16_coding-8" x="205.85" y="98.75" width="5.6" height="23.49" transform="translate(9.51 237.32) rotate(-60.4)"/><rect class="cls-9_coding-8" x="278.91" y="86.63" width="5.6" height="129.61" transform="translate(13.3 325.35) rotate(-61.2)"/><rect class="cls-14_coding-8" x="216.98" y="108.91" width="5.6" height="49.82" transform="translate(-3.55 261.62) rotate(-61.12)"/><rect class="cls-11_coding-8" x="293.86" y="121.76" width="5.6" height="108.47" transform="translate(1.56 354.59) rotate(-61.86)"/></g></svg>